<?xml version="1.0" encoding="UTF-8"?>
<svg width="12px" height="12px" viewBox="0 0 12 12" version="1.1" xmlns="http://www.w3.org/2000/svg" xmlns:xlink="http://www.w3.org/1999/xlink">
    <title>Refresh Icon</title>
    <defs>
        <filter id="filter-1">
            <feColorMatrix in="SourceGraphic" type="matrix" values="0 0 0 0 0.129412 0 0 0 0 0.129412 0 0 0 0 0.129412 0 0 0 1.000000 0"></feColorMatrix>
        </filter>
    </defs>
    <g id="Page-1" stroke="none" stroke-width="1" fill="none" fill-rule="evenodd">
        <g id="Refresh-Icon" transform="translate(-928.000000, -675.000000)" filter="url(#filter-1)">
            <g transform="translate(928.000000, 675.000000)">
                <path d="M0.08,5 C0.45463675,2.7862692 2.03387241,0.966938016 4.17294567,0.284792606 C6.31201893,-0.397352803 8.65295119,0.171846085 10.24,1.76 L12,0 L12,4 L8,4 L9.53,2.47 C8.22917646,1.17123765 6.32061469,0.690970756 4.5600099,1.21936104 C2.7994051,1.74775133 1.47070173,3.19958178 1.1,5 L0.08,5 Z" id="Path" fill="#000000" fill-rule="nonzero"></path>
                <path d="M11.92,7 C11.5453633,9.2137308 9.96612759,11.033062 7.82705433,11.7152074 C5.68798107,12.3973528 3.34704881,11.8281539 1.76,10.24 L0,12 L0,8 L4,8 L2.47,9.53 C3.77082354,10.8287624 5.67938531,11.3090292 7.4399901,10.780639 C9.2005949,10.2522487 10.5292983,8.80041822 10.9,7 L11.92,7 Z" id="Path" fill="#000000" fill-rule="nonzero"></path>
            </g>
        </g>
    </g>
</svg>