<?xml version="1.0" encoding="UTF-8"?>
<svg width="12px" height="12px" viewBox="0 0 12 12" version="1.1" xmlns="http://www.w3.org/2000/svg" xmlns:xlink="http://www.w3.org/1999/xlink">
    <title>Group 3</title>
    <defs>
        <polygon id="path-1" points="0 0.5 12 0.5 12 11.5 0 11.5"></polygon>
    </defs>
    <g id="Page-1" stroke="none" stroke-width="1" fill="none" fill-rule="evenodd">
        <g id="Desktop---Payment---Paypal" transform="translate(-1168.000000, -526.000000)">
            <g id="Group-3" transform="translate(1168.000000, 526.000000)">
                <mask id="mask-2" fill="white">
                    <use xlink:href="#path-1"></use>
                </mask>
                <g id="Clip-2"></g>
                <path d="M3.22371219,4.44009268 C2.63054915,4.44009268 2.14914146,3.9988023 2.14914146,3.45506951 C2.14914146,2.91133672 2.63054915,2.47004634 3.22371219,2.47004634 C3.81687524,2.47004634 4.29828293,2.91133672 4.29828293,3.45506951 C4.29828293,3.9988023 3.81687524,4.44009268 3.22371219,4.44009268 M11.842844,6.48007567 L5.47601245,0.644305894 C5.37554008,0.551713716 5.23853232,0.5 5.09615169,0.5 L0.537285366,0.5 C0.240166558,0.5 0,0.72064519 0,0.992511585 L0,5.17147239 C0,5.30198796 0.0564149634,5.42757841 0.157424612,5.51967808 L6.5242562,11.3559404 C6.7332602,11.5480199 7.07389912,11.5480199 7.2839777,11.3559404 L11.842844,7.17648705 C12.0523853,6.98440753 12.0523853,6.67215519 11.842844,6.48007567" id="Fill-1" fill="#212121" mask="url(#mask-2)"></path>
            </g>
        </g>
    </g>
</svg>