<svg width="24" height="24" viewBox="0 0 24 24" fill="none" xmlns="http://www.w3.org/2000/svg">
<path fill-rule="evenodd" clip-rule="evenodd" d="M21.3766 4.50476C22.4092 4.78253 23.2225 5.60106 23.4985 6.64036C24 8.52416 24 12.4545 24 12.4545C24 12.4545 24 16.3849 23.4985 18.2687C23.2225 19.308 22.4092 20.0924 21.3766 20.3702C19.505 20.875 12 20.875 12 20.875C12 20.875 4.49503 20.875 2.62336 20.3702C1.59077 20.0924 0.777523 19.308 0.501503 18.2687C0 16.3849 0 12.4545 0 12.4545C0 12.4545 0 8.52416 0.501503 6.64036C0.777523 5.60106 1.59077 4.78258 2.62336 4.50476C4.49503 4 12 4 12 4C12 4 19.505 4 21.3766 4.50476ZM15.8181 12.4546L9.54544 8.88605V16.023L15.8181 12.4546Z" fill="#667799"/>
</svg>
